# Blender 4.4.1
# www.blender.org
mtllib enemy.mtl
o Enemy
v -0.372935 -1.010703 1.461289
v -0.372935 -0.290501 1.461289
v -0.372935 -1.010703 1.000186
v -0.372935 -0.290501 1.000186
v 0.372935 -1.010703 1.461289
v 0.372935 -0.290501 1.461289
v 0.372935 -1.010703 1.000186
v 0.372935 -0.290501 1.000186
v -0.607211 -1.010703 1.000000
v -0.607211 -0.087359 1.000000
v -0.607211 -1.010703 -1.000000
v -0.607211 -0.087359 -1.000000
v 0.607211 -1.010703 1.000000
v 0.607211 -0.087359 1.000000
v 0.607211 -1.010703 -1.000000
v 0.607211 -0.087359 -1.000000
v -0.670187 0.005627 1.740888
v -0.637743 0.065944 1.715306
v -0.720199 0.006134 1.678656
v -0.687755 0.066451 1.653074
v -0.237105 -0.376247 1.389739
v -0.204662 -0.315930 1.364158
v -0.287117 -0.375740 1.327507
v -0.254674 -0.315423 1.301926
v 0.670187 0.005627 1.740888
v 0.637743 0.065944 1.715306
v 0.720199 0.006134 1.678656
v 0.687755 0.066451 1.653074
v 0.237105 -0.376247 1.389739
v 0.204662 -0.315930 1.364158
v 0.287117 -0.375740 1.327507
v 0.254674 -0.315423 1.301926
v -0.936286 -0.428196 1.240955
v -0.936286 0.571804 1.240955
v -0.936286 -0.428196 0.240955
v -0.936286 0.571804 0.240955
v 0.063714 -0.428196 1.240955
v 0.063714 0.571804 1.240955
v 0.063714 -0.428196 0.240955
v 0.063714 0.571804 0.240955
v -0.165167 -0.219013 0.765442
v -0.165167 0.780987 0.765442
v -0.165167 -0.219013 -0.234558
v -0.165167 0.780987 -0.234558
v 0.834833 -0.219013 0.765442
v 0.834833 0.780987 0.765442
v 0.834833 -0.219013 -0.234558
v 0.834833 0.780987 -0.234558
v -0.631253 -0.525966 -0.175595
v -0.631253 0.474034 -0.175595
v -0.631253 -0.525966 -1.175595
v -0.631253 0.474034 -1.175595
v 0.368747 -0.525966 -0.175595
v 0.368747 0.474034 -0.175595
v 0.368747 -0.525966 -1.175595
v 0.368747 0.474034 -1.175595
v -1.026555 0.310259 0.042517
v -1.026555 0.810259 0.042517
v -1.026555 0.310259 -0.457483
v -1.026555 0.810259 -0.457483
v -0.526555 0.310259 0.042517
v -0.526555 0.810259 0.042517
v -0.526555 0.310259 -0.457483
v -0.526555 0.810259 -0.457483
v 0.293324 -0.307906 -0.855490
v 0.293324 0.192094 -0.855490
v 0.293324 -0.307906 -1.355490
v 0.293324 0.192094 -1.355490
v 0.793324 -0.307906 -0.855490
v 0.793324 0.192094 -0.855490
v 0.793324 -0.307906 -1.355490
v 0.793324 0.192094 -1.355490
v 0.426395 0.498152 1.007296
v 0.426395 0.998152 1.007296
v 0.426395 0.498152 0.507296
v 0.426395 0.998152 0.507296
v 0.926395 0.498152 1.007296
v 0.926395 0.998152 1.007296
v 0.926395 0.498152 0.507296
v 0.926395 0.998152 0.507296
vn -1.0000 -0.0000 -0.0000
vn 1.0000 -0.0000 -0.0000
vn -0.0000 -0.0000 1.0000
vn -0.0000 -1.0000 -0.0000
vn -0.0000 1.0000 -0.0000
vn -0.0000 -0.0000 -1.0000
vn -0.6409 0.5651 0.5196
vn -0.6264 0.0063 -0.7795
vn 0.6264 -0.0063 0.7795
vn -0.4438 -0.8250 0.3499
vn 0.4438 0.8250 -0.3499
vn 0.6409 0.5651 0.5196
vn 0.6264 0.0063 -0.7795
vn -0.6264 -0.0063 0.7795
vn 0.4438 -0.8250 0.3499
vn -0.4438 0.8250 -0.3499
vn -0.6264 -0.0064 0.7795
vt 0.696969 0.493391
vt 0.659702 0.435184
vt 0.696969 0.435184
vt 0.659702 0.493391
vt 0.599420 0.435184
vt 0.659702 0.374902
vt 0.696969 0.374902
vt 0.696969 0.553673
vt 0.189982 0.017206
vt 0.115357 0.178848
vt 0.115357 0.017206
vt 0.189982 0.178848
vt 0.115357 0.276998
vt 0.189982 0.276998
vt 0.115357 0.438640
vt 0.189982 0.438640
vt 0.115357 0.536791
vt 0.017206 0.438640
vt 0.017206 0.276998
vt 0.288133 0.276998
vt 0.178759 0.767257
vt 0.172850 0.773710
vt 0.178759 0.773710
vt 0.178759 0.828328
vt 0.161106 0.828516
vt 0.167070 0.773390
vt 0.167070 0.828516
vt 0.167436 0.828387
vt 0.160983 0.773769
vt 0.167436 0.773769
vt 0.160983 0.828387
vt 0.172850 0.767257
vt 0.160946 0.828317
vt 0.167296 0.774564
vt 0.167296 0.828317
vt 0.160808 0.774691
vt 0.167121 0.828127
vt 0.160808 0.828127
vt 0.036094 0.711104
vt 0.116915 0.630284
vt 0.116915 0.711105
vt 0.152143 0.691384
vt 0.192553 0.650974
vt 0.192553 0.691384
vt 0.599420 0.493391
vt 0.659702 0.553673
vt 0.189982 0.536791
vt 0.288133 0.438640
vt 0.172850 0.828328
vt 0.161106 0.773390
vt 0.160946 0.774564
vt 0.167121 0.774691
vt 0.036094 0.630284
vt 0.152143 0.650974
s 0
usemtl Material
f 2/1/1 3/2/1 1/3/1
f 8/1/2 5/2/2 7/3/2
f 6/4/3 1/5/3 5/2/3
f 7/3/4 1/6/4 3/7/4
f 4/8/5 6/4/5 8/1/5
f 10/9/1 11/10/1 9/11/1
f 12/12/6 15/13/6 11/10/6
f 16/14/2 13/15/2 15/13/2
f 14/16/3 9/17/3 13/15/3
f 15/13/4 9/18/4 11/19/4
f 12/20/5 14/16/5 16/14/5
f 17/21/7 20/22/7 19/23/7
f 20/22/8 23/24/8 19/23/8
f 22/25/9 17/26/9 21/27/9
f 23/28/10 17/29/10 19/30/10
f 24/30/11 18/31/11 22/29/11
f 25/21/12 28/22/12 26/32/12
f 31/24/13 28/22/13 27/23/13
f 25/28/14 30/29/14 29/30/14
f 25/33/15 31/34/15 27/35/15
f 32/36/16 26/37/16 28/38/16
f 34/39/1 35/40/1 33/41/1
f 36/39/6 39/40/6 35/41/6
f 40/39/2 37/40/2 39/41/2
f 38/39/3 33/40/3 37/41/3
f 39/39/4 33/40/4 35/41/4
f 36/39/5 38/40/5 40/41/5
f 42/39/1 43/40/1 41/41/1
f 44/39/6 47/40/6 43/41/6
f 48/39/2 45/40/2 47/41/2
f 46/39/3 41/40/3 45/41/3
f 47/39/4 41/40/4 43/41/4
f 44/39/5 46/40/5 48/41/5
f 50/39/1 51/40/1 49/41/1
f 52/39/6 55/40/6 51/41/6
f 56/39/2 53/40/2 55/41/2
f 54/39/3 49/40/3 53/41/3
f 55/39/4 49/40/4 51/41/4
f 52/39/5 54/40/5 56/41/5
f 58/42/1 59/43/1 57/44/1
f 60/42/6 63/43/6 59/44/6
f 64/42/2 61/43/2 63/44/2
f 62/42/3 57/43/3 61/44/3
f 63/42/4 57/43/4 59/44/4
f 60/42/5 62/43/5 64/44/5
f 66/42/1 67/43/1 65/44/1
f 68/42/6 71/43/6 67/44/6
f 72/42/2 69/43/2 71/44/2
f 70/42/3 65/43/3 69/44/3
f 71/42/4 65/43/4 67/44/4
f 68/42/5 70/43/5 72/44/5
f 74/42/1 75/43/1 73/44/1
f 76/42/6 79/43/6 75/44/6
f 80/42/2 77/43/2 79/44/2
f 78/42/3 73/43/3 77/44/3
f 79/42/4 73/43/4 75/44/4
f 76/42/5 78/43/5 80/44/5
f 2/1/1 4/4/1 3/2/1
f 8/1/2 6/4/2 5/2/2
f 6/4/3 2/45/3 1/5/3
f 7/3/4 5/2/4 1/6/4
f 4/8/5 2/46/5 6/4/5
f 10/9/1 12/12/1 11/10/1
f 12/12/6 16/14/6 15/13/6
f 16/14/2 14/16/2 13/15/2
f 14/16/3 10/47/3 9/17/3
f 15/13/4 13/15/4 9/18/4
f 12/20/5 10/48/5 14/16/5
f 17/21/7 18/32/7 20/22/7
f 20/22/8 24/49/8 23/24/8
f 22/25/9 18/50/9 17/26/9
f 23/28/10 21/31/10 17/29/10
f 24/30/11 20/28/11 18/31/11
f 25/21/12 27/23/12 28/22/12
f 31/24/13 32/49/13 28/22/13
f 25/28/17 26/31/17 30/29/17
f 25/33/15 29/51/15 31/34/15
f 32/36/16 30/52/16 26/37/16
f 34/39/1 36/53/1 35/40/1
f 36/39/6 40/53/6 39/40/6
f 40/39/2 38/53/2 37/40/2
f 38/39/3 34/53/3 33/40/3
f 39/39/4 37/53/4 33/40/4
f 36/39/5 34/53/5 38/40/5
f 42/39/1 44/53/1 43/40/1
f 44/39/6 48/53/6 47/40/6
f 48/39/2 46/53/2 45/40/2
f 46/39/3 42/53/3 41/40/3
f 47/39/4 45/53/4 41/40/4
f 44/39/5 42/53/5 46/40/5
f 50/39/1 52/53/1 51/40/1
f 52/39/6 56/53/6 55/40/6
f 56/39/2 54/53/2 53/40/2
f 54/39/3 50/53/3 49/40/3
f 55/39/4 53/53/4 49/40/4
f 52/39/5 50/53/5 54/40/5
f 58/42/1 60/54/1 59/43/1
f 60/42/6 64/54/6 63/43/6
f 64/42/2 62/54/2 61/43/2
f 62/42/3 58/54/3 57/43/3
f 63/42/4 61/54/4 57/43/4
f 60/42/5 58/54/5 62/43/5
f 66/42/1 68/54/1 67/43/1
f 68/42/6 72/54/6 71/43/6
f 72/42/2 70/54/2 69/43/2
f 70/42/3 66/54/3 65/43/3
f 71/42/4 69/54/4 65/43/4
f 68/42/5 66/54/5 70/43/5
f 74/42/1 76/54/1 75/43/1
f 76/42/6 80/54/6 79/43/6
f 80/42/2 78/54/2 77/43/2
f 78/42/3 74/54/3 73/43/3
f 79/42/4 77/54/4 73/43/4
f 76/42/5 74/54/5 78/43/5
