# Blender 4.4.1
# www.blender.org
mtllib multiMaterial.mtl
o Cube
v -1.495951 0.226224 -0.724649
v -1.495951 2.226224 -0.724649
v -1.495951 0.226224 1.275351
v -1.495951 2.226224 1.275351
v -3.495951 0.226224 -0.724649
v -3.495951 2.226224 -0.724649
v -3.495951 0.226224 1.275351
v -3.495951 2.226224 1.275351
vn 1.0000 -0.0000 -0.0000
vn -0.0000 -0.0000 1.0000
vn -1.0000 -0.0000 -0.0000
vn -0.0000 -0.0000 -1.0000
vn -0.0000 -1.0000 -0.0000
vn -0.0000 1.0000 -0.0000
vt 0.250000 1.000000
vt 0.750000 0.000000
vt 0.250000 0.000000
vt 0.750000 1.000000
s 1
usemtl Material.001
f 2/1/1 3/2/1 1/3/1
f 4/1/2 7/2/2 3/3/2
f 8/4/3 5/3/3 7/2/3
f 6/4/4 1/3/4 5/2/4
f 7/4/5 1/3/5 3/1/5
f 4/1/6 6/2/6 8/4/6
f 2/1/1 4/4/1 3/2/1
f 6/4/4 2/1/4 1/3/4
f 7/4/5 5/2/5 1/3/5
f 4/1/6 2/3/6 6/2/6
f 4/1/2 8/4/2 7/2/2
f 8/4/3 6/1/3 5/3/3
o Plane
v 1.000000 -1.000000 -0.000000
v -1.000000 -1.000000 -0.000000
v 1.000000 1.000000 0.000000
v -1.000000 1.000000 0.000000
vn -0.0000 -0.0000 -1.0000
vt 1.000000 0.000000
vt 0.000000 1.000000
vt 0.000000 0.000000
vt 1.000000 1.000000
s 1
usemtl Material.002
f 10/5/7 11/6/7 9/7/7
f 10/5/7 12/8/7 11/6/7
