# Blender 4.4.1
# www.blender.org
mtllib bullet.mtl
o Cube
v 0.500000 0.500000 -1.000000
v 0.500000 -0.500000 -1.000000
v 0.000000 0.000000 1.000000
v -0.500000 0.500000 -1.000000
v -0.500000 -0.500000 -1.000000
vn -0.0000 0.9701 0.2425
vn -0.9701 -0.0000 0.2425
vn -0.0000 -0.9701 0.2425
vn 0.9701 -0.0000 0.2425
vn -0.0000 -0.0000 -1.0000
vt 0.564780 0.574409
vt 0.306344 0.741479
vt 0.091139 0.125166
vt 0.000086 0.771590
vt 0.731850 0.000086
vt 0.717962 0.307508
vt 0.473414 0.999914
vt 0.731850 0.832845
s 0
usemtl Material
f 1/1/1 4/2/1 3/3/1
f 3/3/2 4/2/2 5/4/2
f 5/5/3 2/6/3 3/3/3
f 2/6/4 1/1/4 3/3/4
f 5/7/5 4/2/5 1/1/5 2/8/5
